<svg width="400" height="88" viewBox="0 0 400 88" fill="none" xmlns="http://www.w3.org/2000/svg">
<g clip-path="url(#clip0_12_2348)">
<path d="M122.301 28.3432H112.651V36.8132C112.651 37.1065 112.418 37.3388 112.125 37.3388H108.749C108.455 37.3388 108.223 37.1065 108.223 36.8132V16.1332C108.223 15.8521 108.455 15.6199 108.737 15.6199H112.161C112.443 15.6199 112.675 15.8521 112.675 16.1332V24.1265H122.326V16.1577C122.326 15.8643 122.558 15.6321 122.852 15.6321H126.227C126.521 15.6321 126.753 15.8643 126.753 16.1577V36.8132C126.753 37.1065 126.521 37.3388 126.227 37.3388H122.852C122.558 37.3388 122.326 37.1065 122.326 36.8132V28.3432H122.301Z" fill="#545860"/>
<path d="M130.423 28.8321C130.423 23.711 134.117 19.8977 139.327 19.8977C144.819 19.8977 148.281 24.0777 148.085 29.4677C148.085 29.7366 147.84 29.9444 147.571 29.9444H134.948C135.23 32.6699 137.089 34.0388 139.388 34.0388C140.991 34.0388 142.397 33.3544 143.058 32.1444C143.143 31.9855 143.315 31.8999 143.498 31.8999H147.045C147.4 31.8999 147.657 32.2666 147.522 32.5966C146.091 36.141 142.862 37.7055 139.425 37.7055C134.08 37.7055 130.423 33.9166 130.423 28.8321ZM143.339 26.6933C142.838 24.8355 141.443 23.5644 139.303 23.5644C137.162 23.5644 135.731 24.8721 135.169 26.6933H143.339Z" fill="#545860"/>
<path d="M150.482 28.8077C150.482 23.5277 153.87 19.9099 158.249 19.9099C160.671 19.9099 162.469 21.0221 163.655 22.6721V20.7899C163.655 20.5088 163.888 20.2766 164.169 20.2766H167.594C167.875 20.2766 168.108 20.5088 168.108 20.7899L168.083 36.8377C168.083 37.1188 167.851 37.3388 167.569 37.3388H164.157C163.876 37.3388 163.643 37.1066 163.643 36.8255L163.668 35.041C162.457 36.6544 160.683 37.7055 158.298 37.7055C153.821 37.7055 150.507 34.0388 150.507 28.8077H150.482ZM163.643 28.8077C163.643 26.021 161.747 24.1266 159.264 24.1266C156.781 24.1266 154.947 26.021 154.947 28.8077C154.947 31.5944 156.806 33.4888 159.264 33.4888C161.723 33.4888 163.643 31.631 163.643 28.8077Z" fill="#545860"/>
<path d="M175.899 37.3388H172.474C172.193 37.3388 171.96 37.1066 171.96 36.8255V15.9377C171.96 15.7422 172.071 15.571 172.242 15.4855L175.667 13.811C176.009 13.6399 176.4 13.8966 176.4 14.2633V36.8255C176.4 37.1066 176.168 37.3388 175.887 37.3388H175.899Z" fill="#545860"/>
<path d="M206.159 19.8976C203.799 19.8976 202.098 20.8632 200.851 22.5987V14.2632C200.851 13.8843 200.459 13.6399 200.117 13.811L196.692 15.4854C196.521 15.571 196.411 15.7421 196.411 15.9376V36.8254C196.411 37.1065 196.643 37.3387 196.925 37.3387H200.349C200.631 37.3387 200.863 37.1065 200.863 36.8254V28.3554C200.863 25.5687 202.196 24.1143 204.679 24.1143C207.003 24.1143 207.872 25.361 207.872 27.5854V36.8132C207.872 37.0943 208.104 37.3265 208.385 37.3265H211.81C212.091 37.3265 212.324 37.0943 212.324 36.8132V26.6199C212.324 22.4276 210 19.8854 206.171 19.8854L206.159 19.8976Z" fill="#545860"/>
<path d="M181.954 30.7633V24.4688H179.422C179.14 24.4688 178.908 24.2366 178.908 23.9555V20.7777C178.908 20.4966 179.14 20.2644 179.422 20.2644H181.954V15.9255C181.954 15.7299 182.064 15.5588 182.235 15.4733L185.66 13.7988C186.002 13.6277 186.394 13.8844 186.394 14.2511V20.2644H192.216C192.497 20.2644 192.729 20.4966 192.729 20.7777V23.9555C192.729 24.2366 192.497 24.4688 192.216 24.4688H186.394V30.5188C186.394 32.5355 187.36 33.5866 189.121 33.5866C189.977 33.5866 190.98 33.33 192.155 32.9388C192.448 32.8411 192.754 33.0244 192.815 33.3177L193.365 35.9944C193.414 36.2144 193.316 36.4344 193.121 36.5444C192.081 37.1188 190.185 37.7177 188.351 37.7177C184.938 37.7177 181.954 35.6644 181.954 30.7633Z" fill="#545860"/>
<path d="M240.224 66.0245C240.224 70.73 235.943 72.3434 232.542 72.3434C226.94 72.3434 224.47 69.3489 223.821 66.0611C223.76 65.7678 223.993 65.4989 224.286 65.4989H227.54C227.735 65.4989 227.919 65.6211 227.98 65.8167C228.567 67.6011 229.802 68.5056 232.506 68.5056C234.842 68.5056 236.065 67.6378 236.065 66.1956C236.065 64.7534 234.646 64.4967 231.099 63.7145C227.491 62.9689 224.249 61.7834 224.249 57.7989C224.249 53.5578 228.029 51.4434 231.882 51.4434C237.007 51.4434 239.294 54.0345 239.93 57.1389C239.991 57.4322 239.771 57.7134 239.465 57.7134H236.175C235.979 57.7134 235.808 57.5911 235.735 57.42C235.245 56.1611 234.218 55.2934 231.906 55.2934C229.448 55.2934 228.408 56.3323 228.408 57.6278C228.408 58.8134 229.423 59.0945 232.078 59.6811C237.484 60.83 240.224 62.0156 240.224 66.0367V66.0245Z" fill="#545860"/>
<path d="M262.35 56.1244H265.53C265.787 56.1244 266.007 56.3322 266.007 56.6011V58.8989C266.986 56.8211 268.723 55.7822 270.973 55.7822C271.157 55.7822 271.316 55.7822 271.462 55.7945C271.707 55.8067 271.903 56.0145 271.903 56.2711V59.5711C271.903 59.84 271.67 60.06 271.401 60.0478C271.254 60.0478 271.095 60.0356 270.888 60.0356C268.258 60.0356 266.007 61.1844 266.007 64.9489V71.5489C266.007 71.8056 265.799 72.0256 265.53 72.0256H262.35C262.093 72.0256 261.873 71.8178 261.873 71.5489V56.6133C261.873 56.3567 262.081 56.1367 262.35 56.1367V56.1244Z" fill="#545860"/>
<path d="M283.315 72.0012H279.046C278.838 72.0012 278.667 71.879 278.594 71.6834L273.456 56.7478C273.346 56.4423 273.579 56.1245 273.909 56.1245H277.285C277.493 56.1245 277.676 56.259 277.737 56.4545L281.162 67.5523L284.611 56.4545C284.673 56.259 284.856 56.1245 285.064 56.1245H288.44C288.77 56.1245 288.99 56.4423 288.892 56.7478L283.755 71.6834C283.694 71.879 283.511 72.0012 283.303 72.0012H283.315Z" fill="#545860"/>
<path d="M335.592 66.7822H338.845C339.041 66.7822 339.224 66.9044 339.285 67.1C339.677 68.2 340.68 68.9211 343.028 68.9211C344.851 68.9211 345.719 68.4933 345.719 67.6255C345.719 66.5622 344.472 66.4767 342.074 65.89C337.561 64.8267 335.714 63.8122 335.714 61.0744C335.714 57.7255 338.49 55.7944 342.674 55.7944C346.857 55.7944 348.948 57.6522 349.67 60.28C349.755 60.5733 349.523 60.8789 349.205 60.8789H345.927C345.744 60.8789 345.572 60.7689 345.499 60.5978C345.108 59.7544 344.239 59.2533 342.514 59.2533C340.79 59.2533 339.86 59.7178 339.86 60.5855C339.86 61.3311 340.582 61.4778 342.894 62.0033C347.431 63.0422 349.976 63.91 349.976 67.0878C349.976 70.6444 346.832 72.3678 342.894 72.3678C338.955 72.3678 335.91 70.5222 335.102 67.3811C335.029 67.0878 335.249 66.7944 335.567 66.7944L335.592 66.7822Z" fill="#545860"/>
<path d="M124.723 66.0978C124.723 70.8401 120.418 72.4656 116.981 72.4656C111.342 72.4656 108.847 69.4467 108.199 66.1467C108.137 65.8534 108.37 65.5845 108.663 65.5845H111.941C112.137 65.5845 112.321 65.7067 112.394 65.9023C112.993 67.6989 114.229 68.6034 116.956 68.6034C119.317 68.6034 120.54 67.7356 120.54 66.2812C120.54 64.8267 119.109 64.5701 115.537 63.7756C111.905 63.0178 108.639 61.8323 108.639 57.8112C108.639 53.5334 112.455 51.4189 116.32 51.4189C121.482 51.4189 123.794 54.0345 124.43 57.1512C124.491 57.4445 124.258 57.7256 123.965 57.7256H120.65C120.454 57.7256 120.283 57.6034 120.21 57.4201C119.72 56.1612 118.681 55.2812 116.357 55.2812C113.886 55.2812 112.834 56.3323 112.834 57.6401C112.834 58.8378 113.849 59.1189 116.528 59.7056C121.971 60.8667 124.735 62.0645 124.735 66.0978H124.723Z" fill="#545860"/>
<path d="M166.359 56.1245H169.563C169.82 56.1245 170.04 56.3322 170.04 56.6011V58.9111C171.031 56.8211 172.78 55.77 175.043 55.77C175.226 55.77 175.385 55.77 175.532 55.7822C175.777 55.7945 175.972 56.0022 175.972 56.2589V59.5834C175.972 59.8522 175.74 60.0722 175.471 60.06C175.324 60.06 175.165 60.0478 174.957 60.0478C172.315 60.0478 170.04 61.2089 170.04 64.9856V71.6345C170.04 71.8911 169.832 72.1111 169.563 72.1111H166.359C166.102 72.1111 165.882 71.9034 165.882 71.6345V56.6011C165.882 56.3445 166.09 56.1245 166.359 56.1245Z" fill="#545860"/>
<path d="M211.614 50.0622L208.41 51.6266C208.251 51.7122 208.141 51.8711 208.141 52.0544V58.3855C207.04 56.8211 205.352 55.77 203.077 55.77C198.98 55.77 195.775 59.1677 195.775 64.1177C195.775 69.0677 198.918 72.4655 203.077 72.4655C205.352 72.4655 207.028 71.4755 208.141 69.9355V71.6344C208.141 71.8911 208.349 72.1111 208.618 72.1111H211.822C212.079 72.1111 212.299 71.9033 212.299 71.6344V50.49C212.299 50.1355 211.933 49.9033 211.614 50.0622ZM204.043 68.5055C201.744 68.5055 199.995 66.7577 199.995 64.1177C199.995 61.4777 201.707 59.7299 204.043 59.7299C206.379 59.7299 208.141 61.5022 208.141 64.1177C208.141 66.7333 206.367 68.5055 204.043 68.5055Z" fill="#545860"/>
<path d="M176.877 64.1545C176.877 59.3633 180.339 55.7822 185.231 55.7822C190.369 55.7822 193.622 59.7056 193.426 64.7533C193.426 65.01 193.206 65.2056 192.949 65.2056H181.122C181.379 67.76 183.128 69.0433 185.28 69.0433C186.785 69.0433 188.106 68.4078 188.717 67.2711C188.803 67.1245 188.962 67.0389 189.133 67.0389H192.46C192.79 67.0389 193.035 67.3811 192.901 67.6867C191.555 70.9989 188.534 72.4656 185.305 72.4656C180.302 72.4656 176.865 68.9211 176.865 64.1545H176.877ZM188.986 62.15C188.522 60.4022 187.213 59.2167 185.207 59.2167C183.201 59.2167 181.856 60.4389 181.342 62.15H188.999H188.986Z" fill="#545860"/>
<path d="M145.749 64.1178C145.749 59.18 148.917 55.77 153.026 55.77C155.301 55.77 156.977 56.8211 158.09 58.3611V56.6011C158.09 56.3445 158.298 56.1245 158.567 56.1245H161.772C162.041 56.1245 162.249 56.3322 162.249 56.6011L162.224 71.6345C162.224 71.8911 162.016 72.1111 161.747 72.1111H158.543C158.274 72.1111 158.066 71.8911 158.066 71.6345L158.09 69.96C156.953 71.4756 155.301 72.4656 153.063 72.4656C148.88 72.4656 145.761 69.0311 145.761 64.1178H145.749ZM158.078 64.1178C158.078 61.5022 156.304 59.73 153.98 59.73C151.657 59.73 149.932 61.5022 149.932 64.1178C149.932 66.7334 151.681 68.5056 153.98 68.5056C156.28 68.5056 158.078 66.7578 158.078 64.1178Z" fill="#545860"/>
<path d="M137.089 55.7822C134.875 55.7822 133.273 56.6866 132.111 58.3122V50.5022C132.111 50.1477 131.744 49.9155 131.426 50.0744L128.221 51.6388C128.062 51.7244 127.952 51.8833 127.952 52.0666V71.6466C127.952 71.9033 128.16 72.1233 128.429 72.1233H131.634C131.891 72.1233 132.111 71.9155 132.111 71.6466V63.7144C132.111 61.111 133.371 59.7422 135.695 59.7422C137.872 59.7422 138.691 60.9033 138.691 62.9933V71.6466C138.691 71.9033 138.899 72.1233 139.168 72.1233H142.373C142.63 72.1233 142.85 71.9155 142.85 71.6466V62.0888C142.85 58.1655 140.673 55.7822 137.089 55.7822Z" fill="#545860"/>
<path d="M242.609 64.0933C242.609 59.3267 246.046 55.7822 250.902 55.7822C256.014 55.7822 259.231 59.6811 259.048 64.6922C259.048 64.9367 258.828 65.1444 258.571 65.1444H246.829C247.086 67.6867 248.822 68.9578 250.963 68.9578C252.455 68.9578 253.764 68.3222 254.375 67.1978C254.461 67.0511 254.62 66.9656 254.779 66.9656H258.082C258.412 66.9656 258.644 67.3078 258.522 67.6133C257.189 70.9133 254.192 72.3678 250.987 72.3678C246.021 72.3678 242.609 68.8478 242.609 64.1056V64.0933ZM254.632 62.1011C254.167 60.3656 252.871 59.18 250.877 59.18C248.884 59.18 247.55 60.39 247.037 62.1011H254.632Z" fill="#545860"/>
<path d="M316.596 64.0933C316.596 59.3267 320.033 55.7822 324.889 55.7822C330.002 55.7822 333.219 59.6811 333.035 64.6922C333.035 64.9367 332.815 65.1444 332.558 65.1444H320.816C321.073 67.6867 322.81 68.9578 324.95 68.9578C326.442 68.9578 327.751 68.3222 328.363 67.1978C328.448 67.0511 328.607 66.9656 328.766 66.9656H332.069C332.399 66.9656 332.632 67.3078 332.509 67.6133C331.176 70.9133 328.179 72.3678 324.975 72.3678C320.009 72.3678 316.596 68.8478 316.596 64.1056V64.0933ZM328.62 62.1011C328.155 60.3656 326.858 59.18 324.865 59.18C322.871 59.18 321.538 60.39 321.024 62.1011H328.62Z" fill="#545860"/>
<path d="M298.274 64.0689C298.274 59.3633 301.772 55.7822 306.567 55.7822C310.248 55.7822 313.538 57.8967 314.37 61.5756C314.444 61.8689 314.211 62.1622 313.905 62.1622H310.566C310.37 62.1622 310.199 62.0522 310.126 61.8689C309.551 60.3289 308.132 59.5956 306.554 59.5956C304.035 59.5956 302.42 61.4411 302.457 64.0689C302.432 66.7211 304.108 68.5422 306.53 68.5422C308.132 68.5422 309.563 67.7722 310.138 66.2322C310.199 66.0489 310.383 65.9389 310.578 65.9389H313.918C314.223 65.9389 314.444 66.22 314.382 66.5133C313.526 70.3267 310.175 72.3433 306.542 72.3433C301.772 72.3433 298.274 68.7622 298.274 64.0567V64.0689Z" fill="#545860"/>
<path d="M295.937 51.211C295.937 52.6288 294.873 53.6677 293.369 53.6677C291.864 53.6677 290.8 52.6288 290.8 51.211C290.8 49.7932 291.926 48.791 293.369 48.791C294.812 48.791 295.937 49.8055 295.937 51.211ZM291.754 56.1243H294.934C295.191 56.1243 295.412 56.3321 295.412 56.601V71.5366C295.412 71.7932 295.204 72.0132 294.934 72.0132H291.754C291.497 72.0132 291.277 71.8055 291.277 71.5366V56.601C291.277 56.3444 291.485 56.1243 291.754 56.1243Z" fill="#545860"/>
<path d="M8.62328 45.3811C8.61105 44.9289 8.59882 44.4644 8.59882 44C8.59882 24.5055 24.1816 8.70221 43.4092 8.70221H69.3397C52.3381 -4.15557 28.1567 -2.76223 12.7086 12.8822C3.88975 21.8289 -0.342296 33.66 0.0246442 45.3811H8.62328Z" fill="#78BF26"/>
<path d="M23.0561 45.3687V42.6187C23.0561 31.9854 31.5569 23.3687 42.0514 23.3687H81.7544C80.1398 20.2887 78.1461 17.3554 75.761 14.6543H43.3969C27.4227 14.6543 14.4697 27.781 14.4697 43.9754C14.4697 44.4521 14.4697 44.9043 14.5064 45.3687H23.0684H23.0561Z" fill="#78BF26"/>
<path d="M37.5259 41.3355C37.5259 39.5144 38.9814 38.0355 40.7794 38.0355H86.4023C86.0109 35.0777 85.3138 32.1688 84.3352 29.321H40.5103C34.517 29.321 28.9272 34.9922 28.9272 41.0666V45.381H37.5137V41.3355H37.5259Z" fill="#78BF26"/>
<path d="M78.1952 42.6189C78.2074 43.0711 78.2196 43.5356 78.2196 44C78.2196 63.4945 62.6369 79.2978 43.4092 79.2978H17.4788C34.4803 92.1678 58.6617 90.7745 74.0977 75.1178C82.9165 66.1711 87.1485 54.34 86.7816 42.6189H78.1829H78.1952Z" fill="#002C4E"/>
<path d="M63.75 42.6311V45.3811C63.75 56.0144 55.2492 64.6311 44.7547 64.6311H5.05176C6.6663 67.7111 8.66001 70.6444 11.0451 73.3455H43.4093C59.3834 73.3455 72.3364 60.2189 72.3364 44.0244C72.3364 43.5478 72.3364 43.0955 72.2997 42.6311H63.7378H63.75Z" fill="#002C4E"/>
<path d="M49.2925 46.6644C49.2925 48.4855 47.837 49.9644 46.039 49.9644H0.403809C0.795212 52.9222 1.4924 55.8311 2.47091 58.6789H46.6505C52.6439 58.6789 57.8667 53.3867 57.8667 47.3122V42.6311H49.2803V46.6767L49.2925 46.6644Z" fill="#002C4E"/>
</g>
<defs>
<clipPath id="clip0_12_2348">
<rect width="350" height="88" fill="white"/>
</clipPath>
</defs>
</svg>
